<?xml version="1.0" encoding="UTF-8"?> <svg xmlns="http://www.w3.org/2000/svg" width="331" height="48.778" viewBox="0 0 331 48.778"><path d="M40.332,5.122c7.051,0,10.391,4.029,10.391,4.029l-2.968,4.612A10.607,10.607,0,0,0,40.7,10.848a8.034,8.034,0,0,0-8.217,8.376,8.232,8.232,0,0,0,8.431,8.483c4.558,0,7.952-3.447,7.952-3.447l2.6,4.772a15.4,15.4,0,0,1-11.134,4.4c-8.96,0-14.686-6.309-14.686-14.154,0-7.689,5.726-14.156,14.686-14.156Z" transform="translate(24.265 4.846)"></path><path d="M56.34,15.832h.9V15.46c0-3.552-2.226-4.772-5.2-4.772a14.477,14.477,0,0,0-7.423,2.6L42.079,8.462a18.238,18.238,0,0,1,10.6-3.34c7.105,0,11.241,3.923,11.241,10.762V32.8h-6.2V30.57a17.252,17.252,0,0,1,.105-1.907H57.72a8.756,8.756,0,0,1-8.219,4.77c-4.825,0-9.172-3.02-9.172-8.429,0-8.59,11.611-9.172,16.011-9.172ZM51.2,28.184c3.554,0,6.1-3.816,6.1-7.1v-.636H56.128c-3.447,0-9.013.477-9.013,4.241,0,1.8,1.325,3.5,4.081,3.5Z" transform="translate(38.157 4.846)"></path><path d="M56.047,0h6.734V11.611a22.7,22.7,0,0,1-.107,2.281h.107a9.523,9.523,0,0,1,8.112-3.923c7.316,0,11.982,5.778,11.982,14.156,0,8.588-5.249,14.154-12.407,14.154a9.541,9.541,0,0,1-8.059-4.029H62.3a15.739,15.739,0,0,1,.105,1.857v1.536H56.047V0ZM69.3,32.606c3.709,0,6.786-3.022,6.786-8.376,0-5.142-2.758-8.483-6.734-8.483-3.5,0-6.786,2.546-6.786,8.536,0,4.188,2.226,8.324,6.734,8.324Z" transform="translate(53.029)"></path><path d="M72.5,0h6.681V28.206c0,2.97,1.008,3.711,2.758,3.711.529,0,1.006-.053,1.006-.053V37.75a15.271,15.271,0,0,1-2.119.16c-3.711,0-8.326-.956-8.326-8.7V0Z" transform="translate(68.596)"></path><path d="M93.179,5.122c7.794,0,11.982,5.673,11.982,12.831,0,.794-.16,2.6-.16,2.6H86.338c.424,4.719,4.083,7.158,8.112,7.158a13.361,13.361,0,0,0,7.8-2.97l2.6,4.826a16.9,16.9,0,0,1-10.869,3.869c-8.96,0-14.526-6.467-14.526-14.154,0-8.326,5.673-14.156,13.732-14.156Zm5.2,10.815c-.107-3.659-2.386-5.619-5.356-5.619-3.447,0-5.833,2.119-6.469,5.619Z" transform="translate(75.169 4.846)"></path><path d="M106.628,38.2c4.136,0,7.635-1.75,7.635-6.574v-1.59a13.154,13.154,0,0,1,.105-1.432h-.105c-1.592,2.386-3.923,3.659-7.528,3.659-7.742,0-12.142-6.257-12.142-13.68S98.781,5.122,106.575,5.122c5.885,0,8,3.445,8,3.445h.16a5.029,5.029,0,0,1-.053-.741V5.758H121v25.4c0,9.277-7.212,12.778-14.261,12.778a21.548,21.548,0,0,1-9.6-2.333l2.014-5.144a18.165,18.165,0,0,0,7.475,1.75Zm7.794-19.563c0-6.15-3.022-7.794-6.681-7.794-4.083,0-6.362,2.97-6.362,7.528,0,4.719,2.439,8.219,6.786,8.219,3.235,0,6.257-1.857,6.257-7.952Z" transform="translate(89.5 4.846)"></path><path d="M111.973,5.63h6.467v4.665a18.579,18.579,0,0,1-.105,1.909h.105c1.22-3.871,4.455-6.946,8.588-6.946a7.79,7.79,0,0,1,1.22.105v6.629a11.5,11.5,0,0,0-1.59-.107,7.657,7.657,0,0,0-7.37,5.673,14.494,14.494,0,0,0-.584,4.4V32.668h-6.732V5.63Z" transform="translate(105.944 4.975)"></path><path d="M136.488,5.122c8.271,0,14.9,5.885,14.9,14.156,0,8.324-6.627,14.154-14.845,14.154-8.271,0-14.9-5.831-14.9-14.154,0-8.271,6.627-14.156,14.845-14.156Zm.053,22.585c4.348,0,8-3.392,8-8.429a8.041,8.041,0,1,0-16.064,0,8.047,8.047,0,0,0,8.059,8.429Z" transform="translate(115.093 4.846)"></path><path d="M139.513,5.449h6.734V21.46c0,3.287.848,5.513,4.188,5.513,4.879,0,7.582-4.3,7.582-9.12V5.449h6.734V32.487h-6.469V29.412a16.982,16.982,0,0,1,.107-1.907h-.107a10.423,10.423,0,0,1-9.384,5.619c-5.778,0-9.384-2.915-9.384-10.285V5.449Z" transform="translate(132.001 5.156)"></path><path d="M156.294,5.758h6.15V7.72a16.9,16.9,0,0,1-.105,1.855h.105s2.333-4.453,8.7-4.453c7.316,0,11.982,5.778,11.982,14.156,0,8.588-5.249,14.154-12.354,14.154a9.333,9.333,0,0,1-7.74-3.711h-.107a23.2,23.2,0,0,1,.107,2.333V43.4h-6.734V5.758Zm13.255,22c3.709,0,6.786-3.022,6.786-8.376,0-5.142-2.758-8.483-6.734-8.483-3.5,0-6.786,2.546-6.786,8.536,0,4.188,2.279,8.324,6.734,8.324Z" transform="translate(147.878 4.846)"></path><g transform="translate(0 3.902)"><path d="M19.964,36.23A14.26,14.26,0,1,1,31.372,13.413H38a19.965,19.965,0,1,0,0,17.113H31.372A14.237,14.237,0,0,1,19.964,36.23Z" transform="translate(0 -2.005)" fill="#c00020"></path><path d="M34.177,13.571H28.393v0H22.486a8.557,8.557,0,1,0,0,5.7H34.177a19.832,19.832,0,0,0,0-5.706Z" transform="translate(5.546 3.541)" fill="#c00020"></path></g></svg> 