<svg width="54" height="54" viewBox="0 0 54 54" fill="none" xmlns="http://www.w3.org/2000/svg">
<path d="M27 36C39.4264 36 49.5 31.9706 49.5 27C49.5 22.0294 39.4264 18 27 18C14.5736 18 4.5 22.0294 4.5 27C4.5 31.9706 14.5736 36 27 36Z" stroke="#0A72AD" stroke-width="2" stroke-linecap="round" stroke-linejoin="round"/>
<path d="M36 27C36 39.4264 31.9706 49.5 27 49.5C22.0294 49.5 18 39.4264 18 27C18 14.5736 22.0294 4.5 27 4.5C31.9706 4.5 36 14.5736 36 27Z" stroke="#0A72AD" stroke-width="2" stroke-linecap="round" stroke-linejoin="round"/>
<path d="M27 49.5C39.4264 49.5 49.5 39.4264 49.5 27C49.5 14.5736 39.4264 4.5 27 4.5C14.5736 4.5 4.5 14.5736 4.5 27C4.5 39.4264 14.5736 49.5 27 49.5Z" stroke="#0A72AD" stroke-width="2" stroke-linejoin="round"/>
</svg>
