<svg width="30" height="31" viewBox="0 0 30 31" fill="none" xmlns="http://www.w3.org/2000/svg">
<g id="IoLocationSharp">
<path id="Vector" d="M15 2.375C9.82441 2.375 5.625 6.15488 5.625 10.8125C5.625 18.3125 15 28.625 15 28.625C15 28.625 24.375 18.3125 24.375 10.8125C24.375 6.15488 20.1756 2.375 15 2.375ZM15 15.5C14.2583 15.5 13.5333 15.2801 12.9166 14.868C12.2999 14.456 11.8193 13.8703 11.5355 13.1851C11.2516 12.4998 11.1774 11.7458 11.3221 11.0184C11.4667 10.291 11.8239 9.6228 12.3483 9.09835C12.8728 8.5739 13.541 8.21675 14.2684 8.07205C14.9958 7.92736 15.7498 8.00162 16.4351 8.28545C17.1203 8.56928 17.706 9.04993 18.118 9.66661C18.5301 10.2833 18.75 11.0083 18.75 11.75C18.7489 12.7442 18.3535 13.6974 17.6505 14.4005C16.9474 15.1035 15.9942 15.4989 15 15.5Z" fill="#0A72AD"/>
</g>
</svg>
