<svg width="33" height="34" viewBox="0 0 33 34" fill="none" xmlns="http://www.w3.org/2000/svg">
<g id="coracao 1" clip-path="url(#clip0_2378_3152)">
<path id="Vector" d="M24.0623 1.29907C22.514 1.32389 20.9995 1.7692 19.6716 2.59004C18.3438 3.41088 17.2497 4.57819 16.4998 5.97407C15.75 4.57819 14.6559 3.41088 13.328 2.59004C12.0002 1.7692 10.4856 1.32389 8.93732 1.29907C6.46911 1.40956 4.14367 2.52202 2.46902 4.3934C0.794377 6.26479 -0.0933364 8.74298 -0.000179421 11.2866C-0.000179421 20.8845 15.0643 31.9699 15.7051 32.4402L16.4998 33.0197L17.2946 32.4402C17.9353 31.9727 32.9998 20.8845 32.9998 11.2866C33.093 8.74298 32.2053 6.26479 30.5306 4.3934C28.856 2.52202 26.5305 1.40956 24.0623 1.29907Z" fill="#0A72AD"/>
</g>
<defs>
<clipPath id="clip0_2378_3152">
<rect width="33" height="34" fill="white"/>
</clipPath>
</defs>
</svg>
