<svg width="32" height="32" viewBox="0 0 32 32" fill="none" xmlns="http://www.w3.org/2000/svg">
<g id="alvo 1" clip-path="url(#clip0_2358_383)">
<path id="Vector" d="M26.667 17.3335V14.6668H31.9324C31.6132 10.9019 29.9727 7.37126 27.3009 4.69954C24.6292 2.02783 21.0986 0.387259 17.3337 0.0681152V5.33345H14.667V0.0681152C10.9021 0.387259 7.37151 2.02783 4.69979 4.69954C2.02807 7.37126 0.387503 10.9019 0.0683594 14.6668H5.33369V17.3335H0.0683594C0.387503 21.0983 2.02807 24.629 4.69979 27.3007C7.37151 29.9724 10.9021 31.613 14.667 31.9321V26.6668H17.3337V31.9321C21.0986 31.613 24.6292 29.9724 27.3009 27.3007C29.9727 24.629 31.6132 21.0983 31.9324 17.3335H26.667ZM20.0004 17.3335H17.3337V20.0001H14.667V17.3335H12.0004V14.6668H14.667V12.0001H17.3337V14.6668H20.0004V17.3335Z" fill="#0A72AD"/>
</g>
<defs>
<clipPath id="clip0_2358_383">
<rect width="32" height="32" fill="white"/>
</clipPath>
</defs>
</svg>
