<svg width="34" height="34" viewBox="0 0 34 34" fill="none" xmlns="http://www.w3.org/2000/svg">
<g id="verificacao-de-lista 1" clip-path="url(#clip0_2358_378)">
<path id="Vector" d="M6.37513 9.9166C5.72371 9.91844 5.0784 9.79104 4.47654 9.54179C3.87469 9.29254 3.32826 8.92638 2.86888 8.46452L0.70846 6.54494C0.28765 6.16921 0.0333306 5.64171 0.00144941 5.07848C-0.0143365 4.79959 0.0249626 4.52033 0.117103 4.25663C0.209244 3.99294 0.352421 3.74997 0.53846 3.54161C0.724499 3.33324 0.949757 3.16356 1.20137 3.04225C1.45299 2.92094 1.72603 2.85038 2.00492 2.83459C2.56815 2.80271 3.12098 2.99588 3.54179 3.37161L5.78579 5.37477C5.85886 5.46112 5.94885 5.53157 6.05022 5.58176C6.15158 5.63196 6.26216 5.66083 6.37513 5.6666C6.56263 5.66657 6.74246 5.59219 6.87521 5.45977L11.9936 0.586438C12.4046 0.214559 12.9446 0.0179634 13.4985 0.0385817C14.0523 0.0592 14.5762 0.2954 14.9584 0.696806C15.3406 1.09821 15.5508 1.63305 15.5443 2.18727C15.5377 2.74148 15.3149 3.27119 14.9233 3.66344L9.84313 8.49994C9.38668 8.9526 8.8454 9.31074 8.25029 9.55384C7.65519 9.79694 7.01796 9.92021 6.37513 9.9166ZM34.0001 4.95827C34.0001 4.39469 33.7762 3.85418 33.3777 3.45567C32.9792 3.05716 32.4387 2.83327 31.8751 2.83327H20.5418C19.9782 2.83327 19.4377 3.05716 19.0392 3.45567C18.6407 3.85418 18.4168 4.39469 18.4168 4.95827C18.4168 5.52186 18.6407 6.06236 19.0392 6.46087C19.4377 6.85939 19.9782 7.08327 20.5418 7.08327H31.8751C32.4387 7.08327 32.9792 6.85939 33.3777 6.46087C33.7762 6.06236 34.0001 5.52186 34.0001 4.95827ZM9.84313 19.8333L14.9233 14.9968C15.3149 14.6045 15.5377 14.0748 15.5443 13.5206C15.5508 12.9664 15.3406 12.4315 14.9584 12.0301C14.5762 11.6287 14.0523 11.3925 13.4985 11.3719C12.9446 11.3513 12.4046 11.5479 11.9936 11.9198L6.87521 16.7931C6.74238 16.9259 6.56224 17.0005 6.37442 17.0005C6.18659 17.0005 6.00646 16.9259 5.87363 16.7931L3.62821 14.5463C3.22957 14.1476 2.68889 13.9237 2.12513 13.9237C1.56136 13.9237 1.02069 14.1476 0.622043 14.5463C0.223401 14.9449 -0.000554054 15.4856 -0.000554054 16.0494C-0.000554054 16.6131 0.223401 17.1538 0.622043 17.5524L2.86888 19.7979C3.79249 20.7209 5.04294 21.2424 6.34872 21.249C7.6545 21.2556 8.91019 20.7469 9.84313 19.8333ZM34.0001 16.2916C34.0001 15.728 33.7762 15.1875 33.3777 14.789C32.9792 14.3905 32.4387 14.1666 31.8751 14.1666H20.5418C19.9782 14.1666 19.4377 14.3905 19.0392 14.789C18.6407 15.1875 18.4168 15.728 18.4168 16.2916C18.4168 16.8552 18.6407 17.3957 19.0392 17.7942C19.4377 18.1927 19.9782 18.4166 20.5418 18.4166H31.8751C32.4387 18.4166 32.9792 18.1927 33.3777 17.7942C33.7762 17.3957 34.0001 16.8552 34.0001 16.2916ZM9.84313 31.1666L14.9233 26.3301C15.3149 25.9379 15.5377 25.4081 15.5443 24.8539C15.5508 24.2997 15.3406 23.7649 14.9584 23.3635C14.5762 22.9621 14.0523 22.7259 13.4985 22.7052C12.9446 22.6846 12.4046 22.8812 11.9936 23.2531L6.87521 28.1264C6.74246 28.2589 6.56263 28.3332 6.37513 28.3333C6.26216 28.3275 6.15158 28.2986 6.05022 28.2484C5.94885 28.1982 5.85886 28.1278 5.78579 28.0414L3.54179 26.0383C3.12098 25.6625 2.56815 25.4694 2.00492 25.5013C1.44168 25.5331 0.914184 25.7875 0.53846 26.2083C0.162737 26.6291 -0.0304318 27.1819 0.00144941 27.7451C0.0333306 28.3084 0.28765 28.8359 0.70846 29.2116L2.86604 31.1312C3.78978 32.0551 5.04083 32.5771 6.3473 32.5837C7.65377 32.5904 8.91006 32.0811 9.84313 31.1666ZM34.0001 27.6249C34.0001 27.0614 33.7762 26.5209 33.3777 26.1223C32.9792 25.7238 32.4387 25.4999 31.8751 25.4999H20.5418C19.9782 25.4999 19.4377 25.7238 19.0392 26.1223C18.6407 26.5209 18.4168 27.0614 18.4168 27.6249C18.4168 28.1885 18.6407 28.729 19.0392 29.1275C19.4377 29.5261 19.9782 29.7499 20.5418 29.7499H31.8751C32.4387 29.7499 32.9792 29.5261 33.3777 29.1275C33.7762 28.729 34.0001 28.1885 34.0001 27.6249Z" fill="#0A72AD"/>
</g>
<defs>
<clipPath id="clip0_2358_378">
<rect width="34" height="34" fill="white"/>
</clipPath>
</defs>
</svg>
